<?xml version="1.0" encoding="UTF-8"?>
<svg width="32" height="32" viewBox="0 0 32 32" fill="none" xmlns="http://www.w3.org/2000/svg">
  <!-- Ship Hull -->
  <path d="M6 20C6 20 8 18 16 18C24 18 26 20 26 20L24 26C24 26 22 28 16 28C10 28 8 26 8 26L6 20Z" fill="#1976d2"/>
  
  <!-- Ship Mast -->
  <rect x="15" y="4" width="2" height="16" fill="#424242"/>
  
  <!-- Sail -->
  <path d="M17 6L17 16L25 14L25 8L17 6Z" fill="#ffffff" stroke="#1976d2" stroke-width="1"/>
  
  <!-- Flag -->
  <path d="M17 4L17 8L22 6L17 4Z" fill="#dc004e"/>
  
  <!-- Waves -->
  <path d="M2 22C4 20 6 24 8 22C10 20 12 24 14 22C16 20 18 24 20 22C22 20 24 24 26 22C28 20 30 24 32 22" stroke="#2196f3" stroke-width="2" fill="none" opacity="0.6"/>
  <path d="M0 26C2 24 4 28 6 26C8 24 10 28 12 26C14 24 16 28 18 26C20 24 22 28 24 26C26 24 28 28 30 26C30 28 32 26 32 26" stroke="#2196f3" stroke-width="2" fill="none" opacity="0.4"/>
</svg>
